<?xml version="1.0" encoding="utf-8"?>
<!-- Generator: Adobe Illustrator 24.2.3, SVG Export Plug-In . SVG Version: 6.00 Build 0)  -->
<svg version="1.1" id="Layer_1" xmlns="http://www.w3.org/2000/svg" xmlns:xlink="http://www.w3.org/1999/xlink" x="0px" y="0px"
	 viewBox="0 0 640 400" style="enable-background:new 0 0 640 400;" xml:space="preserve">
<style type="text/css">
	.st0{fill:#21E876;}
	.st1{fill:#FF5F5F;}
</style>
<path d="M303.34,237.51v-85.49h20.77v67.5h33.09v17.99H303.34z"/>
<path d="M478.31,237.51v-32.84c0-1.69-0.12-3.32-0.36-4.89c-0.24-1.57-0.68-2.92-1.33-4.04c-0.65-1.13-1.51-2.03-2.6-2.72
	c-1.09-0.68-2.52-1.03-4.29-1.03c-1.69,0-3.16,0.36-4.41,1.09c-1.25,0.73-2.29,1.69-3.14,2.9c-0.84,1.21-1.47,2.6-1.87,4.17
	c-0.4,1.57-0.6,3.2-0.6,4.89v32.48h-19.8v-34.29c0-3.46-0.68-6.2-2.05-8.21c-1.37-2.01-3.54-3.02-6.52-3.02
	c-3.14,0-5.58,1.25-7.31,3.74c-1.73,2.5-2.6,5.55-2.6,9.18v32.6h-19.93v-60.14h19.2v8.33h0.24c0.73-1.29,1.63-2.54,2.72-3.74
	c1.09-1.21,2.39-2.27,3.92-3.2c1.53-0.92,3.24-1.67,5.13-2.23c1.89-0.56,3.96-0.84,6.22-0.84c4.35,0,8.03,0.89,11.05,2.66
	c3.02,1.77,5.37,4.31,7.06,7.61c2.01-3.14,4.59-5.63,7.73-7.49c3.14-1.85,6.96-2.78,11.47-2.78c4.1,0,7.55,0.75,10.32,2.23
	c2.78,1.49,5.01,3.42,6.7,5.8c1.69,2.38,2.92,5.03,3.68,7.97c0.76,2.94,1.15,5.82,1.15,8.63v37.19H478.31z"/>
<path d="M629.13,195.13c-1.61-1.53-3.5-2.82-5.67-3.86c-2.17-1.05-4.47-1.57-6.88-1.57c-1.85,0-3.56,0.36-5.13,1.09
	c-1.57,0.72-2.35,1.97-2.35,3.74c0,1.69,0.86,2.9,2.6,3.62c1.73,0.73,4.53,1.53,8.39,2.41c2.25,0.48,4.53,1.17,6.82,2.05
	c2.3,0.89,4.37,2.05,6.22,3.5c1.85,1.45,3.34,3.22,4.47,5.31c1.13,2.09,1.69,4.59,1.69,7.49c0,3.79-0.77,6.99-2.29,9.6
	c-1.53,2.62-3.52,4.73-5.98,6.34c-2.46,1.61-5.21,2.78-8.27,3.5c-3.06,0.73-6.12,1.09-9.18,1.09c-4.91,0-9.72-0.78-14.43-2.35
	c-4.71-1.57-8.63-3.88-11.77-6.94l11.11-11.71c1.77,1.93,3.94,3.54,6.52,4.83c2.58,1.29,5.31,1.93,8.21,1.93
	c1.61,0,3.2-0.38,4.77-1.15c1.57-0.76,2.35-2.11,2.35-4.05c0-1.85-0.97-3.22-2.9-4.11c-1.93-0.88-4.95-1.81-9.06-2.78
	c-2.09-0.48-4.19-1.13-6.28-1.93c-2.09-0.8-3.97-1.89-5.61-3.26c-1.65-1.37-3-3.06-4.05-5.07c-1.05-2.01-1.57-4.43-1.57-7.25
	c0-3.62,0.76-6.7,2.3-9.24c1.53-2.54,3.5-4.61,5.92-6.22c2.41-1.61,5.09-2.8,8.03-3.56c2.94-0.76,5.86-1.15,8.75-1.15
	c4.51,0,8.92,0.7,13.22,2.11c4.31,1.41,7.95,3.52,10.93,6.34L629.13,195.13z"/>
<path d="M567.04,192.11v23.03c0,2.83,0.54,4.95,1.63,6.36c1.09,1.42,3.04,2.12,5.86,2.12c0.97,0,1.99-0.08,3.08-0.24
	c1.09-0.16,1.99-0.4,2.72-0.72l0.24,14.49c-1.37,0.48-3.1,0.9-5.19,1.27c-2.09,0.36-4.19,0.54-6.28,0.54
	c-4.03,0-7.41-0.51-10.14-1.51c-2.74-1.01-4.93-2.46-6.58-4.36c-1.65-1.9-2.84-4.16-3.56-6.78c-0.73-2.62-1.09-5.55-1.09-8.78
	v-25.42h-9.66v-14.73h9.54v-13.13h19.44v13.13h14.13v14.73H567.04z"/>
<g>
	<path class="st0" d="M529.85,177.37v60.14h-19.8v-60.14H529.85z"/>
	<rect x="516.91" y="164.24" class="st0" width="6.07" height="86.4"/>
</g>
<g>
	<path class="st1" d="M369.3,237.51v-60.14h19.8v60.14H369.3z"/>
	<rect x="376.32" y="164.24" class="st1" width="6.07" height="73.43"/>
</g>
<g>
	<path d="M66.78,207.36c0,4.91-0.89,9.36-2.66,13.34c-1.77,3.98-4.19,7.37-7.25,10.14c-3.06,2.78-6.6,4.93-10.63,6.46
		c-4.03,1.53-8.33,2.29-12.92,2.29c-4.51,0-8.8-0.77-12.86-2.29c-4.07-1.53-7.61-3.68-10.63-6.46c-3.02-2.78-5.42-6.16-7.18-10.14
		C0.88,216.72,0,212.27,0,207.36c0-4.91,0.88-9.34,2.66-13.28c1.77-3.94,4.17-7.28,7.18-10.02c3.02-2.74,6.56-4.83,10.63-6.28
		c4.06-1.45,8.35-2.17,12.86-2.17c4.59,0,8.89,0.72,12.92,2.17c4.02,1.45,7.57,3.54,10.63,6.28c3.06,2.74,5.47,6.08,7.25,10.02
		C65.89,198.02,66.78,202.45,66.78,207.36z M47.7,207.36c0-1.93-0.32-3.82-0.97-5.68c-0.65-1.85-1.57-3.48-2.78-4.89
		c-1.21-1.41-2.7-2.55-4.47-3.44c-1.77-0.88-3.82-1.33-6.16-1.33c-2.34,0-4.39,0.44-6.16,1.33c-1.77,0.89-3.24,2.03-4.41,3.44
		c-1.17,1.41-2.05,3.04-2.66,4.89c-0.6,1.85-0.91,3.74-0.91,5.68c0,1.93,0.3,3.82,0.91,5.68c0.6,1.85,1.51,3.52,2.72,5.01
		c1.21,1.49,2.7,2.68,4.47,3.56c1.77,0.89,3.82,1.33,6.16,1.33c2.33,0,4.39-0.44,6.16-1.33c1.77-0.88,3.26-2.07,4.47-3.56
		c1.21-1.49,2.11-3.16,2.72-5.01C47.4,211.18,47.7,209.29,47.7,207.36z"/>
	<path d="M146.23,207.36c0,4.19-0.65,8.21-1.93,12.08c-1.29,3.86-3.16,7.27-5.62,10.2c-2.46,2.94-5.45,5.29-9,7.06
		c-3.54,1.77-7.57,2.66-12.08,2.66c-3.7,0-7.21-0.75-10.51-2.23c-3.3-1.49-5.88-3.52-7.73-6.1h-0.24v35.62h-19.8v-89.12h18.84v7.37
		h0.36c1.85-2.42,4.41-4.53,7.67-6.34c3.26-1.81,7.1-2.72,11.53-2.72c4.35,0,8.29,0.85,11.83,2.54c3.54,1.69,6.54,3.98,9,6.88
		c2.45,2.9,4.35,6.26,5.68,10.08C145.57,199.17,146.23,203.17,146.23,207.36z M127.03,207.36c0-1.93-0.3-3.82-0.91-5.68
		c-0.6-1.85-1.49-3.48-2.66-4.89c-1.17-1.41-2.64-2.55-4.41-3.44c-1.77-0.88-3.82-1.33-6.16-1.33c-2.25,0-4.27,0.44-6.04,1.33
		c-1.77,0.89-3.28,2.05-4.53,3.5c-1.25,1.45-2.22,3.1-2.9,4.95c-0.68,1.85-1.03,3.74-1.03,5.68c0,1.93,0.34,3.82,1.03,5.68
		c0.68,1.85,1.65,3.5,2.9,4.95c1.25,1.45,2.76,2.62,4.53,3.5c1.77,0.89,3.78,1.33,6.04,1.33c2.33,0,4.39-0.44,6.16-1.33
		c1.77-0.88,3.24-2.05,4.41-3.5c1.17-1.45,2.05-3.12,2.66-5.01C126.73,211.2,127.03,209.29,127.03,207.36z"/>
	<path d="M218.32,208.33c0,0.81,0,1.61,0,2.42c0,0.81-0.04,1.57-0.12,2.29h-43.59c0.16,1.69,0.66,3.22,1.51,4.59
		c0.85,1.37,1.93,2.56,3.26,3.56c1.33,1.01,2.82,1.79,4.47,2.35c1.65,0.56,3.36,0.85,5.13,0.85c3.14,0,5.8-0.58,7.97-1.75
		c2.17-1.17,3.94-2.68,5.31-4.53l13.77,8.69c-2.82,4.11-6.54,7.27-11.17,9.48c-4.63,2.21-10,3.32-16.12,3.32
		c-4.51,0-8.78-0.71-12.8-2.11c-4.03-1.41-7.55-3.46-10.57-6.16c-3.02-2.7-5.39-6.02-7.12-9.96c-1.73-3.94-2.6-8.45-2.6-13.52
		c0-4.91,0.85-9.36,2.54-13.34c1.69-3.98,3.98-7.37,6.88-10.14c2.9-2.78,6.32-4.93,10.26-6.46c3.94-1.53,8.21-2.29,12.8-2.29
		c4.43,0,8.49,0.75,12.2,2.23c3.7,1.49,6.88,3.64,9.54,6.46c2.66,2.82,4.73,6.24,6.22,10.26
		C217.58,198.59,218.32,203.17,218.32,208.33z M200.09,200.72c0-3.14-0.99-5.84-2.96-8.09c-1.97-2.25-4.93-3.38-8.88-3.38
		c-1.93,0-3.7,0.3-5.31,0.91c-1.61,0.6-3.02,1.43-4.23,2.48c-1.21,1.05-2.17,2.28-2.9,3.68c-0.72,1.41-1.13,2.88-1.21,4.41H200.09z"
		/>
	<path d="M270.12,237.67v-32.85c0-1.69-0.14-3.3-0.42-4.83c-0.28-1.53-0.75-2.88-1.39-4.05c-0.65-1.17-1.55-2.09-2.72-2.78
		c-1.17-0.68-2.64-1.03-4.41-1.03c-1.77,0-3.32,0.34-4.65,1.03c-1.33,0.68-2.44,1.63-3.32,2.84c-0.89,1.21-1.55,2.6-1.99,4.17
		c-0.44,1.57-0.66,3.2-0.66,4.89v32.6h-19.92v-60.14h19.2v8.33h0.24c0.72-1.29,1.67-2.55,2.84-3.8c1.17-1.25,2.54-2.31,4.11-3.2
		c1.57-0.88,3.28-1.61,5.13-2.17c1.85-0.56,3.82-0.85,5.92-0.85c4.02,0,7.45,0.72,10.26,2.17c2.82,1.45,5.09,3.32,6.82,5.62
		c1.73,2.29,2.98,4.93,3.74,7.91c0.76,2.98,1.15,5.96,1.15,8.94v37.19H270.12z"/>
</g>
</svg>
